<svg id="egypt_1_" data-name="egypt (1)" xmlns="http://www.w3.org/2000/svg" width="73.329" height="73.329" viewBox="0 0 73.329 73.329">
  <circle id="Ellipse_169" data-name="Ellipse 169" cx="36.663" cy="36.663" r="36.663" transform="translate(0.003 0.003)" fill="#fff"/>
  <path id="Path_1345" data-name="Path 1345" d="M336.811,157.875H314.22a101.37,101.37,0,0,1,.019,24.3h22.62a36.7,36.7,0,0,0-.048-24.3Z" transform="translate(-265.576 -133.435)" fill="#efecec"/>
  <path id="Path_1346" data-name="Path 1346" d="M266.8,25.262h22.59a.253.253,0,0,0-.012-.032A36.685,36.685,0,0,0,258.115.972C263.726,4.048,265.366,13.795,266.8,25.262Z" transform="translate(-218.157 -0.822)" fill="#c42b27"/>
  <path id="Path_1347" data-name="Path 1347" d="M258.115,339.3a36.689,36.689,0,0,0,31.29-24.329c.012-.035.023-.07.035-.1H266.82C265.4,326.4,263.75,336.215,258.115,339.3Z" transform="translate(-218.157 -266.127)" fill="#0b0b0b"/>
  <path id="Path_1348" data-name="Path 1348" d="M0,170.1a36.612,36.612,0,0,0,2.046,12.079h48.5a101.381,101.381,0,0,0-.018-24.3H2.1A36.588,36.588,0,0,0,0,170.1Z" transform="translate(0 -133.435)" fill="#efefef"/>
  <path id="Path_1349" data-name="Path 1349" d="M13.545,24.408c0,.01-.007.02-.012.032H61.97C60.534,12.974,57.007,3.227,51.4.151,50.31.054,49.212,0,48.1,0A36.672,36.672,0,0,0,13.545,24.408Z" transform="translate(-11.438)" fill="#cc3434"/>
  <path id="Path_1350" data-name="Path 1350" d="M61.723,314.871h-48.5c.012.034.024.069.035.1a36.675,36.675,0,0,0,34.582,24.481c1.11,0,2.208-.055,3.294-.152C56.766,336.215,60.3,326.4,61.723,314.871Z" transform="translate(-11.173 -266.127)" fill="#151515"/>
  <g id="Group_873" data-name="Group 873" transform="translate(29.406 28.212)">
    <path id="Path_1351" data-name="Path 1351" d="M204.367,199.222a9.913,9.913,0,0,0-1.631-.053c-.1.059-.088.233-.133.348.052.108.16.049.268.133.167.16.281.377.535.455-.218.229-.212.68-.535.8.055.526-.287.618-.8.721a31.429,31.429,0,0,1-8.932.186,4.462,4.462,0,0,1-1.525-.4.5.5,0,0,1-.133-.456c-.31-.154-.313-.614-.561-.829.346-.117.413-.513.8-.588a1.2,1.2,0,0,0-.082-.374,10.73,10.73,0,0,0-1.685.053c.043-.6.057-1.278.108-1.979.068-.937.058-2.035.133-2.968.039-.476.024-.968.055-1.444.056-.9.016-1.8.08-2.648.069-.914.037-1.89.107-2.753.071-.9.318-1.611,1.363-1.525,1.239.1,2.018,1.141,3.369,1.15a3.525,3.525,0,0,0,.909-3.021c-.081-.521-.632-1.274-1.176-.989-.08-.879.757-.761,1.31-.482.168-.105.218-.254.4-.294a2.012,2.012,0,0,1,1.257.241,1.732,1.732,0,0,1,.615,1.551c0,.374-.085.746-.055,1.122a3.37,3.37,0,0,0,.669,1.846c1.255.115,2.178-1,3.4-1.124a1.229,1.229,0,0,1,1.177.482,23.357,23.357,0,0,1,.347,4.145c.067.864.027,1.766.08,2.648C204.221,195.172,204.28,197.174,204.367,199.222Zm-6.017-13.986a7.8,7.8,0,0,0-.107-2.166c-.119-.113-.188-.276-.348-.347h-.4c-.2.108-.274.33-.482.374-.494.105-.534-.364-.909-.508-.1-.038-.229-.017-.348-.054-.358-.109-.571-.237-.749.268.655-.038,1.239.173,1.391.722-.374-.1-.269.232-.241.453a3.973,3.973,0,0,1-.482,2.595c-.178.288-.406.514-.535.776.389-.072.74-.05.936-.3.262-.326.206-1.025.374-1.417a2.89,2.89,0,0,1-.641,1.9c.953-.134,1.118-.929,1.2-1.9a2.523,2.523,0,0,1-.215,1.337c.123.154.193.361.375.456a1.3,1.3,0,0,0,.347-.482,2.034,2.034,0,0,1-.16-1.311c-.012,1.029.269,1.764,1.151,1.9a2.662,2.662,0,0,1-.589-1.926,4.326,4.326,0,0,0,.347,1.471,1.9,1.9,0,0,0,.937.268A3.719,3.719,0,0,1,198.35,185.236Zm-1.684-2.433v.107c.064-.01.058.05.133.027a.164.164,0,0,0,.027-.133A.131.131,0,0,0,196.666,182.8Zm-5.162,3.182a1.022,1.022,0,0,0-.909,1.124c.259-.089.505-.331.776-.321-.145,4.024-.321,7.685-.482,11.66a3.17,3.17,0,0,0-.7.668h1.444c.076-.638.793-.769,1.391-.589.284-.981.572-1.958.83-2.968-.266.163-.4.455-.669.615.1-2.573.226-5.078.321-7.7a2.352,2.352,0,0,0,1.738.241,5.337,5.337,0,0,0,1.952-.856,4.365,4.365,0,0,0,2.407.909,2.909,2.909,0,0,0,1.23-.241c.056,2.622.243,5.186.294,7.675a7.5,7.5,0,0,0-.641-.616c.236,1.012.544,1.953.8,2.942.623-.2,1.311-.026,1.418.589.471-.018,1.015.035,1.443-.027-.168-.3-.584-.384-.694-.7a5.41,5.41,0,0,1-.053-1.338c-.147-3.234-.353-7.053-.428-10.294a8.132,8.132,0,0,1,.776.347c-.06-.644-.328-1.083-.936-1.124-1.384-.093-2.182,1.18-3.583,1.15,0,.17.273.208.241.321a4.068,4.068,0,0,1-.936-.133c-.026.148.243.216.267.4a2.386,2.386,0,0,1-1.256-.614,2.477,2.477,0,0,1-.4.508,3.177,3.177,0,0,0-.4-.508,1.743,1.743,0,0,1-1.229.588c.078-.135.24-.188.267-.374a2.425,2.425,0,0,1-.936.108c.083-.1.224-.133.241-.3C193.76,187.172,192.834,185.882,191.5,185.984Zm2.594,2.889c.053,2.932,1.171,5.032,3.1,6.177a6.976,6.976,0,0,0,3.022-6.177,5.513,5.513,0,0,1-2.192-.4c-.329-.141-.646-.4-.909-.482A4.749,4.749,0,0,1,194.1,188.874Zm.053,1.952c-.025,1.3-.233,2.885-.133,4.225a9.1,9.1,0,0,0,.241-2.593,3.52,3.52,0,0,0-.081-1.712A.126.126,0,0,1,194.151,190.825Zm5.937,2.407a4.271,4.271,0,0,0,.267,1.844c.027-1.422-.152-2.9-.159-4.306-.035,0-.037-.033-.081-.026A11,11,0,0,0,200.089,193.232Zm-5.509,1.524c.23-.26.488-.493.7-.777a2.067,2.067,0,0,0-.482-1.363C194.71,193.3,194.049,194.19,194.58,194.757Zm4.492-.75c.251.232.466.639.748.75.4-.65-.177-1.348-.24-2.087-.035,0-.038-.035-.082-.026A2.128,2.128,0,0,0,199.072,194.007Zm-3.583,1.2a7.414,7.414,0,0,0,.668-.856c-.332-.265-.574-.619-.882-.91C195.344,194.036,195.383,194.656,195.489,195.211Zm2.7-.83a4.52,4.52,0,0,0,.7.83c.055-.579.1-1.167.186-1.712,0-.033-.008-.063-.053-.055A9.152,9.152,0,0,1,198.19,194.381Zm-3.691.535c-.033-.172-.123-.286-.16-.453a3.67,3.67,0,0,0-.374,1.176c-.043.149-.146.272-.133.428.306-.131.432-.442.749-.562a6.655,6.655,0,0,0,.267.7c.248-.119.236-.495.456-.642.121.431.248.857.4,1.257.285-.241.61-.444.7-.883-.16-.365-.307-.744-.454-1.122-.217.148-.355.519-.535.615a4.135,4.135,0,0,0-.188-1.284A4.93,4.93,0,0,1,194.5,194.916Zm4.439.535c-.195-.2-.329-.455-.535-.641-.077.175-.167.348-.241.535a2.314,2.314,0,0,0-.214.588c-.02.42.442.616.7.883a7.664,7.664,0,0,1,.347-1.257c.166.209.241.509.482.642.123-.224.209-.486.321-.722a7.136,7.136,0,0,0,.7.589,9.38,9.38,0,0,0-.482-1.631,2.1,2.1,0,0,1-.214.481,7.161,7.161,0,0,0-.722-.748A8.5,8.5,0,0,0,198.938,195.451Zm-2.728-1.015c-.433.309.048.935.215,1.285.076-.309.146-.622.214-.937C196.492,194.672,196.351,194.554,196.21,194.435Zm1.5.374a3.209,3.209,0,0,0,.241.91c.149-.316.26-.668.4-.99-.076-.111-.124-.25-.267-.294C198.018,194.619,197.783,194.634,197.708,194.809Zm-3.236.8a2.731,2.731,0,0,1-.7.589c-.186.539.2,1,.374,1.417.243-.177.347-.492.589-.668a4.042,4.042,0,0,0,.321.909c.262-.184.413-.619.667-.721a2.018,2.018,0,0,0,.215.829c.095-.511.217-1,.32-1.5-.216.044-.373.374-.588.509-.148-.387-.244-.824-.4-1.2-.21.147-.24.475-.428.642A2.493,2.493,0,0,0,194.473,195.611Zm4.974.8c-.153-.222-.243-.5-.482-.642-.1.4-.206.793-.293,1.2-.223-.128-.372-.466-.589-.509a6.959,6.959,0,0,0,.374,1.524,4.921,4.921,0,0,1,.188-.882c.241.232.366.578.668.748.084-.318.2-.6.294-.909.226.193.333.5.589.668.148-.43.524-.83.373-1.389-.278-.177-.485-.424-.749-.616C199.664,195.847,199.608,196.182,199.446,196.414Zm-2.914,2.112c-.138.077-.235.195-.375.268-.057-.067-.222-.285-.267-.188s-.042.244-.08.348c.255.024.76-.075.882.16.362-.05.654.068.936,0,.105-.026.188-.14.294-.16.2-.039.392.035.589,0-.037-.116-.008-.3-.082-.374-.175-.007-.145.192-.32.186-.091-.122-.257-.172-.348-.294-.1-.744-.166-1.528-.32-2.22-.061.739.109,1.477.079,2.273-.143.123-.212.322-.374.428-.061-.179-.3-.27-.348-.508-.116-.654.243-1.667.082-2.193C196.729,196.976,196.7,197.817,196.532,198.526Zm-3.424.027a.659.659,0,0,0,.455.106,4.32,4.32,0,0,1,.508-.641,6.22,6.22,0,0,0,.322.829h.186c.145-.175.225-.416.374-.588.094.209.139.467.24.668a1.826,1.826,0,0,0,.482.027,2.073,2.073,0,0,0-.026-1.657c-.246.218-.39.536-.642.749a2.7,2.7,0,0,0-.348-.909c-.186.212-.354.446-.534.668-.19-.336-.243-.809-.509-1.07C193.473,197.366,193.291,197.96,193.109,198.553Zm7.087-.749a3.072,3.072,0,0,0-.562-.668c-.157.261-.181.657-.348.909-.206-.232-.391-.623-.641-.722a2.11,2.11,0,0,0,.027,1.631,1.618,1.618,0,0,0,.455-.027c.123-.188.144-.479.267-.668.113.2.234.389.347.588h.214a8.472,8.472,0,0,1,.348-.856,3.923,3.923,0,0,0,.508.7c.149-.038.338-.037.4-.16-.181-.577-.332-1.183-.508-1.764h-.08C200.5,197.125,200.348,197.466,200.2,197.8Zm-6.552.909a5.5,5.5,0,0,0,.642.107,1.5,1.5,0,0,0-.294-.641C193.9,198.382,193.712,198.489,193.644,198.714Zm6.418.106a5,5,0,0,0,.615-.107c-.02-.161-.229-.357-.347-.508C200.161,198.331,200.126,198.592,200.061,198.82Zm-5.375.054c.088.054.272.014.4.027-.051-.155-.042-.369-.186-.428A1.345,1.345,0,0,0,194.686,198.874Zm4.573.027h.374a.5.5,0,0,0-.268-.428C199.359,198.632,199.221,198.783,199.26,198.9Zm2.594-.376a20.147,20.147,0,0,1-2.22.456,11.1,11.1,0,0,1-1.712.053c-.157.17-.076.364.027.535a6.213,6.213,0,0,0,1.685-.027c-.03-.567.644-.708.721-.107a7.128,7.128,0,0,0,1.685-.428C202.045,198.782,202.044,198.559,201.854,198.526Zm-7.648.4c-.459-.065-1.077-.283-1.5-.374-.239-.052-.31-.009-.4.107v.375a8.8,8.8,0,0,0,1.685.4c.05-.6.728-.491.694.107a6.265,6.265,0,0,0,1.686.027c.119-.188.2-.326.053-.535A12.339,12.339,0,0,1,194.206,198.928Zm-2.433.321a1.116,1.116,0,0,0,.454-.241c-.012-.13.027-.313-.027-.4A.5.5,0,0,0,191.773,199.248Zm10.348-.214a1.26,1.26,0,0,0,.454.214.522.522,0,0,0-.427-.642C202.092,198.7,202.133,198.9,202.121,199.035Zm-7.782.721a1.115,1.115,0,0,1,.214-.16.593.593,0,0,0-.107-.48C193.976,199.05,193.994,199.7,194.339,199.756Zm5.429-.187c.038.093.161.113.267.186.109-.06.161-.178.241-.267C200.262,198.9,199.589,199.143,199.767,199.57Zm-5.83-.053c-.712-.024-1.429-.523-2.059-.214-.02.13-.116.185-.08.373-.3-.032-.649.37-.668.509-.042.3.261.524.427.722a.657.657,0,0,0,.081.426c2.264.75,6,.765,8.8.456.821-.091,2.129-.175,2.354-.642v-.321c.3-.078.344-.4.427-.7-.237-.155-.318-.466-.7-.481.075-.108-.052-.206-.053-.321-.333-.284-.732-.076-1.2.026-.648.141-1.072.142-1.231.616-.067-.165-.226-.237-.347-.348a5.555,5.555,0,0,1-1.711.027c-.139.217-.445.268-.482.588a1.336,1.336,0,0,1-.188-.642h-.267a1.448,1.448,0,0,1-.215.642c-.021-.326-.339-.355-.453-.588a7.462,7.462,0,0,1-1.713,0c-.183.057-.261.218-.4.321C194.238,199.734,194.045,199.668,193.938,199.516Zm2.915-.322a1.135,1.135,0,0,0,.188.322c.326.067.355-.161.455-.322A1.6,1.6,0,0,0,196.853,199.195Zm-.375.456a1.016,1.016,0,0,0,.4.294c.1-.277.032-.688-.268-.722C196.635,199.433,196.455,199.439,196.478,199.65Zm1.15-.428c-.166.12-.375.564-.108.722.1-.131.284-.18.348-.348C197.757,199.5,197.782,199.272,197.628,199.222Z" transform="translate(-189.953 -182.241)" fill="#eebc31"/>
    <path id="Path_1352" data-name="Path 1352" d="M197.949,223.048a7.875,7.875,0,0,1-.909.775c.127-3.65.359-7.4.482-11.177a3.7,3.7,0,0,1,.829.7C198.235,216.607,198.083,219.6,197.949,223.048Z" transform="translate(-195.943 -207.939)" fill="#eebc31"/>
    <path id="Path_1353" data-name="Path 1353" d="M268.728,223.657c-.153.03-.3-.221-.455-.348a2.3,2.3,0,0,1-.482-.427c-.168-2.754-.128-5.661-.348-8.289a6.978,6.978,0,0,1-.053-1.364c.084-.326.637-.45.8-.747C268.4,215.834,268.537,220.043,268.728,223.657Z" transform="translate(-255.383 -207.799)" fill="#eebc31"/>
    <path id="Path_1354" data-name="Path 1354" d="M204.864,218.352a5.434,5.434,0,0,1,.668.535c-.064,2.149-.2,4.723-.294,6.871a4.4,4.4,0,0,1-.027,1.1c-.113.311-.549.478-.749.749C204.579,224.489,204.761,221.4,204.864,218.352Z" transform="translate(-202.216 -212.762)" fill="#eebc31"/>
    <path id="Path_1355" data-name="Path 1355" d="M262.86,227.684c-.035.037-.109-.057-.16-.108-.158-.156-.379-.4-.535-.561-.135-2.616-.239-5.345-.347-7.942a2.862,2.862,0,0,1,.615-.562C262.588,221.325,262.725,224.667,262.86,227.684Z" transform="translate(-250.692 -212.896)" fill="#eebc31"/>
    <path id="Path_1356" data-name="Path 1356" d="M223.487,221.421a6.853,6.853,0,0,1-2.808,5.856c-1.732-1.191-2.745-3.1-2.915-5.856a5.03,5.03,0,0,0,2.915-.829A4.614,4.614,0,0,0,223.487,221.421Zm-3.77-.188c-.048,1.095-.026,2.569-.026,3.771a6.077,6.077,0,0,0,0,1.284c.048.172.313.331.455.454a3.056,3.056,0,0,0,.508.4c.261-.2.9-.518.99-.856a6.046,6.046,0,0,0,0-1.256v-3.8c-.347-.171-.674-.361-1.017-.535C220.381,220.936,219.98,221.015,219.716,221.233Z" transform="translate(-213.459 -214.655)" fill="#eebc31"/>
    <path id="Path_1357" data-name="Path 1357" d="M206.542,288.477c.167.056.432.013.455.215-.141.052-.255-.131-.455-.108Z" transform="translate(-203.974 -272.031)" fill="#eebc31"/>
    <path id="Path_1358" data-name="Path 1358" d="M264.17,288.631a1.793,1.793,0,0,1-.455.186C263.711,288.631,264.074,288.541,264.17,288.631Z" transform="translate(-252.297 -272.131)" fill="#eebc31"/>
    <path id="Path_1359" data-name="Path 1359" d="M211.725,290.208a.914.914,0,0,1,.561.186C212.111,290.4,211.76,290.358,211.725,290.208Z" transform="translate(-208.355 -273.494)" fill="#eebc31"/>
    <path id="Path_1360" data-name="Path 1360" d="M258.255,290.306a.887.887,0,0,1-.589.159A.761.761,0,0,1,258.255,290.306Z" transform="translate(-247.184 -273.565)" fill="#eebc31"/>
    <path id="Path_1361" data-name="Path 1361" d="M248.753,291.916a1.333,1.333,0,0,1-.589,0C248.21,291.735,248.693,291.751,248.753,291.916Z" transform="translate(-239.152 -274.828)" fill="#eebc31"/>
    <path id="Path_1362" data-name="Path 1362" d="M221.866,291.9c-.052.2-.428.071-.642.106C221.241,291.77,221.687,291.9,221.866,291.9Z" transform="translate(-216.383 -274.895)" fill="#eebc31"/>
    <path id="Path_1363" data-name="Path 1363" d="M227.477,292.265a1.016,1.016,0,0,1-.562.079C226.969,292.2,227.323,292.217,227.477,292.265Z" transform="translate(-221.193 -275.203)" fill="#eebc31"/>
    <path id="Path_1364" data-name="Path 1364" d="M243.03,292.344a5.582,5.582,0,0,1-.562-.081C242.569,292.168,243.03,292.16,243.03,292.344Z" transform="translate(-234.338 -275.175)" fill="#eebc31"/>
    <path id="Path_1365" data-name="Path 1365" d="M256.6,294.726c.121,0,.056-.195.186-.188-.019.082.027.1.026.16a.528.528,0,0,1-.481.053c-.21.112-.471.5-.749.214-.192.032-.164.281-.321.348-.214-.168-.4-.086-.722-.054-.1.109-.1.305-.294.321.012-.122.158-.109.16-.24-.03-.087-.182-.05-.241-.108-.05-.219.121-.218.188-.321.122.03.133.17.16.3a.609.609,0,0,0,.241-.055.632.632,0,0,1,.186-.347c0-.148-.1-.35-.081-.428.153.035.079.3.16.4.206-.019.328.048.374.186.208-.079.27-.321.535-.32.116,0,.179.1.294.08.032-.355-.061-1.084-.508-.8.02-.14.218-.1.374-.107C256.365,294.009,256.1,294.751,256.6,294.726Zm-.937.214c.123.111.433.051.4-.16C255.984,294.644,255.606,294.7,255.659,294.939Zm-.534.133a.972.972,0,0,0,.186-.053C255.311,294.714,254.883,294.866,255.124,295.073Zm-.241.081c.067,0,.083-.042.133-.054,0-.087.012-.188-.081-.186C254.887,294.96,254.811,295.067,254.883,295.153Zm-.643.054c.083.037.121.012.188-.027,0-.063-.046-.079-.027-.16C254.29,295.025,254.221,295.069,254.241,295.208Zm.909,0a.116.116,0,0,0,.188-.109C255.255,295.116,255.149,295.106,255.15,295.208Z" transform="translate(-244.213 -276.541)" fill="#eebc31"/>
    <path id="Path_1366" data-name="Path 1366" d="M205.918,294.466v.133c-.038.042-.137.024-.214.027-.023-.095,0-.067-.026-.16A.19.19,0,0,1,205.918,294.466Z" transform="translate(-203.244 -277.056)" fill="#eebc31"/>
    <path id="Path_1367" data-name="Path 1367" d="M205.567,296.6c0,.048-.033.057-.027.107-.109,0-.209,0-.214-.107A.254.254,0,0,1,205.567,296.6Z" transform="translate(-202.946 -278.875)" fill="#eebc31"/>
    <path id="Path_1368" data-name="Path 1368" d="M243,298.155h.107a.208.208,0,0,1,0,.214H243A.208.208,0,0,1,243,298.155Z" transform="translate(-234.762 -280.211)" fill="#eebc31"/>
    <path id="Path_1369" data-name="Path 1369" d="M215.981,298.495c.083.348.142,1.1-.16,1.15s-.215-.407-.508-.428a.792.792,0,0,1-.588.054c-.133.009-.112.173-.241.188.172-.178.1-.4.081-.616.143.017.164.157.16.322.077.161.4.053.508,0-.058-.113-.13-.21-.188-.322.164-.043.164-.195.321-.186a.279.279,0,0,1,.053.535c.175.065.2.285.348.374C216.121,299.489,215.863,298.805,215.981,298.495Zm-.8.428c0,.1.088.16.186.215C215.817,298.935,215.2,298.494,215.18,298.923Z" transform="translate(-210.686 -280.498)" fill="#eebc31"/>
    <path id="Path_1370" data-name="Path 1370" d="M225.948,298.495c.087.184-.031.606-.055.856A2.222,2.222,0,0,1,225.948,298.495Z" transform="translate(-220.305 -280.498)" fill="#eebc31"/>
    <path id="Path_1371" data-name="Path 1371" d="M244.116,298.495c.179.178-.032.745.186.882.183-.054.306-.03.348-.186.037-.139-.155-.222-.053-.321.239.012.081.347.053.482a1.83,1.83,0,0,1-.8.053c.015-.137.158-.145.268-.188C244.217,298.986,244.058,298.682,244.116,298.495Z" transform="translate(-235.505 -280.498)" fill="#eebc31"/>
    <path id="Path_1372" data-name="Path 1372" d="M243.258,300.255c.017.156-.324.067-.214-.027C243.083,300.192,243.256,300.173,243.258,300.255Z" transform="translate(-234.807 -281.937)" fill="#eebc31"/>
    <path id="Path_1373" data-name="Path 1373" d="M250.681,301.741a1.453,1.453,0,0,1,.188-.348c-.075-.149-.369-.289-.161-.482C251.118,300.972,250.924,301.643,250.681,301.741Zm.026-.7c.013.1.056.178.161.188C250.933,301.154,250.812,300.956,250.707,301.045Z" transform="translate(-241.24 -282.54)" fill="#eebc31"/>
    <path id="Path_1374" data-name="Path 1374" d="M268.651,301.34c0,.156-.191.1-.267.053C268.426,301.244,268.562,301.289,268.651,301.34Z" transform="translate(-256.242 -282.862)" fill="#eebc31"/>
    <path id="Path_1375" data-name="Path 1375" d="M228.17,301.434a1.19,1.19,0,0,0,1.015.133c.078.075.07.234.134.321a.228.228,0,0,1,.16-.027c-.056-.318.387-.4.374-.053-.082.152-.321.142-.562.134-.109.06-.109.229-.214.293a.313.313,0,0,1-.241-.24,4.206,4.206,0,0,0-.856-.053c-.108.127-.211.389-.374.374.078-.137.23-.2.268-.374-.05-.1-.236-.182-.134-.348.257-.042.131.3.347.294C228.316,301.8,228.141,301.583,228.17,301.434Zm.08.454c.145,0,.39,0,.588.027.084.068.094.209.214.241.088-.116.24-.336.108-.508C228.865,301.893,228.222,301.332,228.25,301.888Zm1.336-.027c.139.024.19-.042.188-.16C229.673,301.565,229.491,301.722,229.586,301.861Z" transform="translate(-221.778 -282.982)" fill="#eebc31"/>
    <path id="Path_1376" data-name="Path 1376" d="M205.756,302.268c.085-.023.083.042.133.055a.434.434,0,0,1-.053.186C205.682,302.487,205.682,302.352,205.756,302.268Z" transform="translate(-203.269 -283.683)" fill="#eebc31"/>
    <path id="Path_1377" data-name="Path 1377" d="M207.643,302.959c.113.185-.159.285-.241.133C207.412,302.978,207.5,302.937,207.643,302.959Z" transform="translate(-204.701 -284.266)" fill="#eebc31"/>
    <path id="Path_1378" data-name="Path 1378" d="M210.227,303.548c-.026,0-.021.033-.027.054h-.188C209.886,303.382,210.237,303.3,210.227,303.548Z" transform="translate(-206.883 -284.641)" fill="#eebc31"/>
    <path id="Path_1379" data-name="Path 1379" d="M245.1,305.406c.142,0,.126.232.027.268C245.022,305.66,245.03,305.453,245.1,305.406Z" transform="translate(-236.52 -286.339)" fill="#eebc31"/>
    <path id="Path_1380" data-name="Path 1380" d="M246.805,305.783c-.078-.03-.158-.057-.186-.133C246.7,305.394,247.028,305.622,246.805,305.783Z" transform="translate(-237.847 -286.448)" fill="#eebc31"/>
    <path id="Path_1381" data-name="Path 1381" d="M206.053,294.7h.081c.008.369-.55,1,.081,1.043.1-.066.046-.292.186-.321.016.141-.054.2-.08.294.122.343.738.148.482-.24.3,0,.064.325.026.455a.615.615,0,0,1-.561-.108c-.3-.024-.56-.083-.588-.374C205.945,295.34,206,295.024,206.053,294.7Z" transform="translate(-203.244 -277.29)" fill="#eebc31"/>
  </g>
</svg>
