<svg xmlns="http://www.w3.org/2000/svg" width="74.256" height="74.255" viewBox="0 0 74.256 74.255">
  <g id="planet-earth" transform="translate(-0.001)">
    <path id="Path_1455" data-name="Path 1455" d="M291.965,5.659q.36.08.717.166Q292.325,5.738,291.965,5.659Z" transform="translate(-246.799 -4.784)" fill="#48bbee"/>
    <path id="Path_1456" data-name="Path 1456" d="M286.583,4.534c.134.026.267.052.4.08C286.85,4.586,286.716,4.56,286.583,4.534Z" transform="translate(-242.249 -3.833)" fill="#48bbee"/>
    <path id="Path_1457" data-name="Path 1457" d="M298.525,7.2q.245.061.488.126Q298.77,7.263,298.525,7.2Z" transform="translate(-252.344 -6.087)" fill="#48bbee"/>
    <path id="Path_1458" data-name="Path 1458" d="M303.227,8.435q.881.24,1.745.522Q304.108,8.675,303.227,8.435Z" transform="translate(-256.319 -7.13)" fill="#48bbee"/>
    <path id="Path_1459" data-name="Path 1459" d="M245.557.07l.257.007Z" transform="translate(-207.57 -0.059)" fill="#48bbee"/>
    <path id="Path_1460" data-name="Path 1460" d="M315.066,11.99q.3.1.6.2Q315.369,12.09,315.066,11.99Z" transform="translate(-266.326 -10.135)" fill="#48bbee"/>
    <path id="Path_1461" data-name="Path 1461" d="M251.289.272l.256.012Z" transform="translate(-212.415 -0.23)" fill="#48bbee"/>
    <path id="Path_1462" data-name="Path 1462" d="M258.344.692l.123.011Z" transform="translate(-218.379 -0.585)" fill="#48bbee"/>
    <path id="Path_1463" data-name="Path 1463" d="M276.214,2.719l.292.047C276.409,2.75,276.312,2.734,276.214,2.719Z" transform="translate(-233.484 -2.298)" fill="#48bbee"/>
    <path id="Path_1464" data-name="Path 1464" d="M168.285,158.772a6.778,6.778,0,0,1,3.749,1.132l3.178,2.1a2.475,2.475,0,0,0,2.151.284l5.716-1.911.956-.864a2.719,2.719,0,0,0,.217-3.816l-6.04,1.792a.62.62,0,0,1-.6-.137l-4.057-3.713a.619.619,0,0,0-1.036.427l.349,2.755a.619.619,0,0,1-1.025.538l-3.368-2.986a3.092,3.092,0,0,0-3.548.469l-1.077,2.705a2.476,2.476,0,0,1-.819,1.068l-1.71,1.277,5.766-1.018A6.865,6.865,0,0,1,168.285,158.772Z" transform="translate(-136.37 -129.736)" fill="#48bbee"/>
    <path id="Path_1465" data-name="Path 1465" d="M178.137,13.384a37.033,37.033,0,0,1,8.339,4.16h-.009a37.3,37.3,0,0,1,7.027,6.082l0-.005a37.128,37.128,0,0,1,3.11,3.976l.094.139q.565.839,1.084,1.71l.154.261c.263.45.521.9.766,1.365l0,.006a36.881,36.881,0,0,1,4.039,12.9.633.633,0,0,1-.264-.014l-11.923-3.789.556,2.472a1.857,1.857,0,0,0,2.394,1.354l1.376-.456a.612.612,0,0,1,.557.086.619.619,0,0,1,.256.5V47.5a4.328,4.328,0,0,1-1.752,3.478L190.4,53.827a1.237,1.237,0,0,1-1.766-.222l-5.73-7.639a4.95,4.95,0,0,0-2.395-1.726l-2.246-.749,9.365,12.162a4.31,4.31,0,0,0,3.069.992l1.757-.12a.635.635,0,0,1,.5.2.621.621,0,0,1,.147.523l-.723,3.983a.619.619,0,0,1-.185.34l-7.251,6.832-5.418,13.7a.616.616,0,0,1-.4.367,7.4,7.4,0,0,1-5.7-.662,7.335,7.335,0,0,1-3.512-4.476,14.076,14.076,0,0,1-.621-3.087V69.079l-.836-.321a11.775,11.775,0,0,1-4.926-3.586L161.616,62.8l-8.226,1.468a5.5,5.5,0,0,1-1.064.084A37.2,37.2,0,0,0,167.58,85.525c-.561.025-1.123.043-1.69.043a37.132,37.132,0,0,0,12.248-72.184Z" transform="translate(-128.762 -11.314)" fill="#48bbee"/>
    <path id="Path_1466" data-name="Path 1466" d="M263.744,1.169l.3.031Z" transform="translate(-222.944 -0.988)" fill="#48bbee"/>
    <path id="Path_1467" data-name="Path 1467" d="M269.26,1.779l.3.037Z" transform="translate(-227.606 -1.504)" fill="#48bbee"/>
    <path id="Path_1468" data-name="Path 1468" d="M282.073,130.145,284,128.721a1.189,1.189,0,0,0,.191-.211l.04-.013a1.237,1.237,0,0,0-1.7-1.766l-1.6,1.182H277.9a1.238,1.238,0,1,0,0,2.475h3.437A1.241,1.241,0,0,0,282.073,130.145Z" transform="translate(-233.863 -106.92)" fill="#48bbee"/>
    <path id="Path_1469" data-name="Path 1469" d="M281.409,3.571l.382.069Z" transform="translate(-237.876 -3.019)" fill="#48bbee"/>
    <path id="Path_1470" data-name="Path 1470" d="M331.1,105.222a1.233,1.233,0,0,0,.728-.237c.033-.024.064-.05.094-.076a1.237,1.237,0,0,0,.385-.69l.007,0a1.231,1.231,0,0,0-.215-.961l-3.168-4.345a1.237,1.237,0,1,0-2,1.459l3.168,4.345A1.237,1.237,0,0,0,331.1,105.222Z" transform="translate(-276.154 -83.18)" fill="#48bbee"/>
    <path id="Path_1471" data-name="Path 1471" d="M23.564,53.04a5.552,5.552,0,0,1-3.584-1.382l-.095-.084c-.051-.047-.1-.094-.149-.143s-.087-.088-.13-.133-.079-.084-.118-.128c-.052-.059-.1-.119-.152-.18-.029-.035-.058-.069-.086-.105-.077-.1-.152-.2-.223-.307h0l-.9-1.341a9.272,9.272,0,0,1-1.448-6.7c.005-.031.009-.062.015-.093s.015-.075.022-.112c.012-.064.024-.129.038-.193l.006-.027a9.271,9.271,0,0,1,.562-1.748q.124-.285.269-.564l0-.007h0l1.9-3.658L19.46,34.86a4.3,4.3,0,0,1,3.054-4.237l-1.681-.468a3.092,3.092,0,0,1-2.26-2.815l-.089-1.654a3.092,3.092,0,0,1,2.763-3.242l1.648-.175V19.344a.616.616,0,0,1,.247-.494l4.92-3.713a3.048,3.048,0,0,0,.819-.931l.847-1.478-5.5,1.079a.624.624,0,0,1-.513-.129.617.617,0,0,1-.226-.478V11.5A5.543,5.543,0,0,1,25.564,7.17L33.313.92a.619.619,0,0,1,.7-.054L39.436,3.99a.623.623,0,0,0,.476.06.613.613,0,0,0,.375-.3L42.358.378h0l0,0A36.9,36.9,0,0,1,57.7,6.231h.009a37.03,37.03,0,0,0-8.339-4.16l-.033-.011q-.3-.1-.6-.2l-.087-.028q-.863-.282-1.745-.522l-.239-.065q-.243-.065-.488-.126l-.3-.073q-.357-.087-.717-.166c-.144-.032-.288-.064-.433-.094s-.267-.054-.4-.08l-.418-.08L43.533.552c-.17-.03-.341-.057-.511-.085L42.73.421q-.384-.058-.772-.108l-.3-.037Q41.378.242,41.1.212L40.8.181q-.355-.035-.712-.063L39.965.107c-.277-.021-.556-.038-.835-.053L38.874.042q-.314-.015-.63-.024L37.987.011C37.7,0,37.415,0,37.127,0a37.127,37.127,0,0,0,0,74.255c.567,0,1.129-.018,1.69-.043A37.2,37.2,0,0,1,23.564,53.04ZM17.509,13.6a1.236,1.236,0,0,1,1.7-.407l1.978,1.215a1.239,1.239,0,0,1,.561,1.323l-.875,3.939a1.239,1.239,0,0,1-1.207.969,1.219,1.219,0,0,1-.269-.03,1.238,1.238,0,0,1-.94-1.476l.684-3.078-1.227-.753A1.238,1.238,0,0,1,17.509,13.6Z" fill="#0e94d7"/>
    <path id="Path_1472" data-name="Path 1472" d="M359.976,140.462c-.03.026-.061.052-.094.076A1.161,1.161,0,0,0,359.976,140.462Z" transform="translate(-304.209 -118.733)" fill="#00e389"/>
    <path id="Path_1473" data-name="Path 1473" d="M251.08,208.615l1.006.666,1.145-.383A2.476,2.476,0,0,1,251.08,208.615Z" transform="translate(-212.239 -176.343)" fill="#00e389"/>
    <path id="Path_1474" data-name="Path 1474" d="M306.883,142.589h0a1.237,1.237,0,0,0,.735-.242l1.926-1.424-1.926,1.424A1.24,1.24,0,0,1,306.883,142.589Z" transform="translate(-259.409 -119.122)" fill="#00e389"/>
    <path id="Path_1475" data-name="Path 1475" d="M406.348,136.367l.788,2.945-7.7-2.447,11.923,3.789a.633.633,0,0,0,.264.014,36.884,36.884,0,0,0-4.039-12.9l-1.164,3.867A8.665,8.665,0,0,0,406.348,136.367Z" transform="translate(-337.645 -108)" fill="#2ff4a6"/>
    <path id="Path_1476" data-name="Path 1476" d="M170.21,282.421l-.136.2a4.95,4.95,0,0,1-4.118,2.2h-14.5a4.95,4.95,0,0,0-4.119,2.2l-2.331,3.5-1.272.227a5.562,5.562,0,0,1-2.833-.233,5.552,5.552,0,0,0,1.768.317,5.494,5.494,0,0,0,1.064-.084l8.226-1.468,1.914,2.371a11.775,11.775,0,0,0,4.926,3.586l.836.321v5.165a14.075,14.075,0,0,0,.621,3.087,7.431,7.431,0,0,0,7.144,5.431,7.473,7.473,0,0,0,2.068-.293.617.617,0,0,0,.4-.367l5.418-13.7,7.251-6.832a.619.619,0,0,0,.185-.34l.723-3.983a.621.621,0,0,0-.147-.523.635.635,0,0,0-.5-.2l-1.757.12a4.31,4.31,0,0,1-3.069-.992l-5.337-.793A2.473,2.473,0,0,0,170.21,282.421Z" transform="translate(-119.102 -237.8)" fill="#2ff4a6"/>
    <path id="Path_1477" data-name="Path 1477" d="M446.175,117.215l.154.261Z" transform="translate(-377.153 -99.082)" fill="#00e389"/>
    <path id="Path_1478" data-name="Path 1478" d="M438.56,105.264l.094.139Z" transform="translate(-370.716 -88.98)" fill="#00e389"/>
    <path id="Path_1479" data-name="Path 1479" d="M177.08,2.423l.065.007a36.923,36.923,0,0,1,5.9,1.345c.138.044.271.1.409.143.781.257,1.553.535,2.31.842.253.1.5.217.749.325.633.273,1.26.558,1.875.864.283.141.562.291.841.439q.855.454,1.684.95.422.253.837.517c.214.136.418.285.629.425a37.146,37.146,0,0,0-33,23.982l.3-.057,1.71-1.277a2.474,2.474,0,0,0,.818-1.068l1.077-2.705a3.092,3.092,0,0,1,3.548-.47l3.368,2.986a.619.619,0,0,0,1.025-.538l-.349-2.755a.619.619,0,0,1,1.036-.427l4.057,3.713a.62.62,0,0,0,.6.137l6.04-1.792-3.33.988-.314-.558a2.4,2.4,0,0,1,.455-2.927h-.657a1.238,1.238,0,1,1,0-2.475h3.03l1.6-1.182a1.237,1.237,0,0,1,1.7,1.766l1.611-.537h1.6l.361.5L185.5,19.234a1.237,1.237,0,1,1,2-1.459l3.168,4.345a1.232,1.232,0,0,1,.215.961l2.46-.678A4.95,4.95,0,0,0,196.37,20l3.084-5.646a37.309,37.309,0,0,0-7.027-6.082,36.9,36.9,0,0,0-15.345-5.857Z" transform="translate(-134.723 -2.045)" fill="#2ff4a6"/>
    <path id="Path_1480" data-name="Path 1480" d="M112.587,86.417l1.227.753-.684,3.078a1.238,1.238,0,0,0,.94,1.476,1.21,1.21,0,0,0,.269.03,1.238,1.238,0,0,0,1.207-.969l.875-3.939a1.239,1.239,0,0,0-.561-1.323l-1.978-1.215a1.238,1.238,0,1,0-1.3,2.109Z" transform="translate(-94.671 -71.109)" fill="#0bb"/>
    <path id="Path_1481" data-name="Path 1481" d="M125.632,32.285a37.146,37.146,0,0,1,33-23.982c-.211-.14-.415-.289-.629-.425q-.415-.264-.837-.517-.828-.5-1.684-.95c-.279-.148-.557-.3-.841-.439-.614-.306-1.241-.591-1.875-.864-.25-.108-.5-.222-.749-.325-.757-.307-1.529-.585-2.31-.842-.137-.045-.271-.1-.409-.143a36.886,36.886,0,0,0-5.9-1.345l-.065-.007h0l-2.071,3.374a.613.613,0,0,1-.375.3.623.623,0,0,1-.476-.06l-5.425-3.125a.619.619,0,0,0-.7.054l-7.749,6.25a5.542,5.542,0,0,0-2.074,4.335v1.7a.617.617,0,0,0,.226.478.624.624,0,0,0,.513.129l5.5-1.079-.847,1.478a3.05,3.05,0,0,1-.819.931l-4.92,3.713a.616.616,0,0,0-.247.494v2.925l-1.648.175a3.092,3.092,0,0,0-2.763,3.242l.089,1.654a3.091,3.091,0,0,0,2.26,2.815l1.681.468Z" transform="translate(-100.977 -2.068)" fill="#0bb"/>
    <path id="Path_1482" data-name="Path 1482" d="M107.122,278.042a9.283,9.283,0,0,1,0-3.071,9.272,9.272,0,0,0,1.448,6.7q-.089-.132-.172-.266A9.265,9.265,0,0,1,107.122,278.042Z" transform="translate(-90.441 -232.434)" fill="#0bb"/>
    <path id="Path_1483" data-name="Path 1483" d="M107.907,273.76c.007-.037.015-.075.022-.112C107.922,273.685,107.914,273.722,107.907,273.76Z" transform="translate(-91.214 -231.315)" fill="#0bb"/>
    <path id="Path_1484" data-name="Path 1484" d="M108.29,272.253l.006-.027Z" transform="translate(-91.538 -230.113)" fill="#0bb"/>
    <path id="Path_1485" data-name="Path 1485" d="M118.072,319.618h0l-.9-1.341Z" transform="translate(-99.046 -269.04)" fill="#ffedb9"/>
    <path id="Path_1486" data-name="Path 1486" d="M111.961,257.841q.124-.285.269-.564Q112.085,257.556,111.961,257.841Z" transform="translate(-94.641 -217.477)" fill="#ffedb9"/>
    <path id="Path_1487" data-name="Path 1487" d="M113.718,237.248h0l1.9-3.658Z" transform="translate(-96.126 -197.454)" fill="#ffedb9"/>
    <path id="Path_1488" data-name="Path 1488" d="M167.795,87.609l-2.46.678-.007,0a1.236,1.236,0,0,1-.385.69,1.191,1.191,0,0,1-.094.076,1.237,1.237,0,0,1-1.728-.271l-.361-.5h-1.6l-1.611.537-.04.013a1.187,1.187,0,0,1-.191.211l-1.926,1.424a1.237,1.237,0,0,1-.735.242h-2.78a2.4,2.4,0,0,0-.455,2.927l.314.558,3.33-.988a2.719,2.719,0,0,1-.218,3.816l-.956.864-5.716,1.911-1.145.383-1.006-.666-3.178-2.1a6.776,6.776,0,0,0-3.749-1.132,6.845,6.845,0,0,0-1.192.105l-5.766,1.018-.3.057-2.141.407,2.15-.409a37.1,37.1,0,0,0-1.093,22.815,5.585,5.585,0,0,1-3.591-1.372,5.565,5.565,0,0,0,4.649,1.3l1.272-.227,2.331-3.5a4.95,4.95,0,0,1,4.119-2.2h14.5a4.95,4.95,0,0,0,4.118-2.2l.136-.2a2.475,2.475,0,0,1,2.423-1.075l5.337.793L158.68,99.427l2.246.749a4.951,4.951,0,0,1,2.395,1.726l5.73,7.639a1.238,1.238,0,0,0,1.766.222l3.541-2.847a4.328,4.328,0,0,0,1.752-3.478v-3.365a.619.619,0,0,0-.256-.5.612.612,0,0,0-.557-.086l-1.376.456a1.857,1.857,0,0,1-2.394-1.354l-.556-2.472,7.7,2.447-.788-2.945a8.664,8.664,0,0,1,.073-4.735l1.164-3.867,0-.006c-.245-.461-.5-.915-.766-1.365l-.154-.261q-.519-.871-1.084-1.71l-.094-.139a37.132,37.132,0,0,0-3.11-3.976l0,.005-3.084,5.646A4.949,4.949,0,0,1,167.795,87.609Z" transform="translate(-109.177 -67.25)" fill="#2ff4a6"/>
    <path id="Path_1489" data-name="Path 1489" d="M127.577,332.46c.049.048.1.1.149.143C127.676,332.556,127.626,332.508,127.577,332.46Z" transform="translate(-107.841 -281.029)" fill="#ffedb9"/>
    <path id="Path_1490" data-name="Path 1490" d="M124.435,328.932c.028.036.057.07.086.105C124.492,329,124.463,328.968,124.435,328.932Z" transform="translate(-105.185 -278.047)" fill="#ffedb9"/>
    <path id="Path_1491" data-name="Path 1491" d="M125.975,330.778c.039.043.078.086.118.128C126.053,330.864,126.014,330.821,125.975,330.778Z" transform="translate(-106.487 -279.608)" fill="#ffedb9"/>
    <path id="Path_1492" data-name="Path 1492" d="M107.831,294.822a9.264,9.264,0,0,0,1.273,3.362A9.264,9.264,0,0,1,107.831,294.822Z" transform="translate(-91.15 -249.214)" fill="#ffedb9"/>
    <path id="Path_1493" data-name="Path 1493" d="M114.016,218.131a37.1,37.1,0,0,1,1.093-22.815l-2.15.409a4.3,4.3,0,0,0-3.054,4.237l.028,1.276-1.9,3.658h0l0,.007q-.144.279-.269.564a9.266,9.266,0,0,0-.562,1.748l-.006.027c-.014.064-.025.128-.038.193-.007.037-.015.074-.022.112s-.01.062-.015.093a9.287,9.287,0,0,0,1.276,6.433q.084.134.172.266l.9,1.341h0c.071.106.146.208.223.307.028.036.057.07.086.105.05.061.1.122.152.18.039.043.078.086.118.128s.086.089.13.133.1.1.149.143l.095.084A5.585,5.585,0,0,0,114.016,218.131Z" transform="translate(-90.444 -165.101)" fill="#0bb"/>
    <g id="Group_2370" data-name="Group 2370" transform="translate(53.662 168.598)">
      <path id="Path_2559" data-name="Path 2559" d="M22.42,81.76l1.327-1.422a3.626,3.626,0,0,0,.7-3.856h0c-.571-1.387-1.687-2.734-3.074-2.92-4.609,4.394-8.2,11.091-9.771,18.153,1.036.906,2.928.926,2.922,1.011a31.794,31.794,0,0,0,3.883-.49L16.4,89.3l2.88-2.059Z" transform="translate(-64.432 -231.001)" fill="#0bb"/>
      <path id="Path_2560" data-name="Path 2560" d="M24.433,284.723a2.382,2.382,0,0,0,1.53-3l-.357-1.1a2.382,2.382,0,0,1,0-1.479h0a2.382,2.382,0,0,0-1.807-3.081l-2.8-.548-5.123-3.9-4.236,1.376a29.641,29.641,0,0,0,3.652,11.134c1.821,3.154,3.831,6.772,6.529,8.894l1.494-7.936Z" transform="translate(-64.745 -398.31)" fill="#0bb"/>
    </g>
  </g>
</svg>
